<?xml version="1.0" standalone="no"?><!DOCTYPE svg PUBLIC "-//W3C//DTD SVG 1.1//EN" "http://www.w3.org/Graphics/SVG/1.1/DTD/svg11.dtd"><svg t="1495976786701" class="icon" style="" viewBox="0 0 1024 1024" version="1.1" xmlns="http://www.w3.org/2000/svg" p-id="6176" xmlns:xlink="http://www.w3.org/1999/xlink" width="30" height="30"><defs><style type="text/css"></style></defs><path d="M512.003 512.003m-491.986961 0a491.986961 491.986961 0 1 0 983.973922 0 491.986961 491.986961 0 1 0-983.973922 0Z" fill="#FDDF6D" p-id="6177"></path><path d="M617.431206 931.355819c-271.716531 0-491.984961-220.26843-491.984961-491.984961 0-145.168284 62.886123-275.632538 162.888318-365.684714-159.280311 81.438159-268.320524 247.140483-268.320524 438.312856 0 271.716531 220.26843 491.984961 491.984961 491.984961 126.548247 0 241.924473-47.794093 329.096643-126.298247-67.100131 34.312067-143.12228 53.670105-223.664437 53.670105z" fill="#FCC56B" p-id="6178"></path><path d="M878.789716 413.238807h-163.642319c-11.056022 0-20.014039-8.962018-20.014039-20.014039 0-11.054022 8.958017-20.014039 20.014039-20.014039h163.642319c11.056022 0 20.014039 8.962018 20.014039 20.014039 0 11.054022-8.962018 20.014039-20.014039 20.014039zM503.964984 413.238807h-163.642319c-11.056022 0-20.014039-8.962018-20.014039-20.014039 0-11.054022 8.958017-20.014039 20.014039-20.014039h163.642319c11.056022 0 20.014039 8.962018 20.014039 20.014039 0 11.054022-8.962018 20.014039-20.014039 20.014039zM796.969557 710.345387H435.772851c-11.056022 0-20.014039-8.962018-20.014039-20.014039s8.958017-20.014039 20.014039-20.014039h361.194706c11.056022 0 20.014039 8.962018 20.014039 20.014039s-8.960018 20.014039-20.012039 20.014039z" fill="#7F184C" p-id="6179"></path><path d="M934.963826 223.392436c-56.862111-83.176162-136.024266-147.268288-228.930447-185.340362-10.22402-4.192008-21.918043 0.702001-26.108051 10.930022-4.192008 10.22802 0.702001 21.918043 10.930021 26.110051 85.646167 35.098069 158.62831 94.192184 211.064413 170.890333 53.680105 78.522153 82.05216 170.512333 82.05216 266.01652 0 260.246508-211.726414 471.970922-471.970922 471.970922S40.030078 772.247508 40.030078 511.999 251.754492 40.030078 511.999 40.030078c11.056022 0 20.014039-8.962018 20.014039-20.014039S523.055022 0 511.999 0C229.680449 0 0 229.682449 0 511.999s229.680449 511.999 511.999 511.999 511.999-229.680449 511.999-511.999c0.004-103.600202-30.78406-203.398397-89.034174-288.606564z" fill="" p-id="6180"></path><path d="M878.789716 413.238807c11.056022 0 20.014039-8.962018 20.014039-20.014039 0-11.054022-8.958017-20.014039-20.014039-20.014039h-163.642319c-11.056022 0-20.014039 8.962018-20.014039 20.014039 0 11.054022 8.958017 20.014039 20.014039 20.014039h163.642319zM415.758812 690.333348c0 11.054022 8.958017 20.014039 20.014039 20.014039h361.194706c11.056022 0 20.014039-8.962018 20.014039-20.014039s-8.958017-20.014039-20.014039-20.014039H435.772851a20.010039 20.010039 0 0 0-20.014039 20.014039zM523.979023 393.224768c0-11.054022-8.958017-20.014039-20.014039-20.014039h-163.642319c-11.056022 0-20.014039 8.962018-20.014039 20.014039 0 11.054022 8.958017 20.014039 20.014039 20.014039h163.642319c11.052022 0 20.014039-8.960018 20.014039-20.014039z" fill="" p-id="6181"></path><path d="M628.061227 35.480069m-20.014039 0a20.014039 20.014039 0 1 0 40.028078 0 20.014039 20.014039 0 1 0-40.028078 0Z" fill="" p-id="6182"></path></svg>